{
  "accessors": [
    {
      "bufferView": 0,
      "componentType": 5125,
      "count": 29076,
      "type": "SCALAR"
    },
    {
      "bufferView": 1,
      "componentType": 5126,
      "count": 10154,
      "max": [
        0.963396847248077,
        0.178797706961632,
        1.57847833633423
      ],
      "min": [
        -0.963396847248077,
        -0.178797692060471,
        -0.421521544456482
      ],
      "type": "VEC3"
    },
    {
      "bufferView": 2,
      "componentType": 5126,
      "count": 10154,
      "type": "VEC3"
    },
    {
      "bufferView": 3,
      "componentType": 5126,
      "count": 10154,
      "type": "VEC2"
    }
  ],
  "asset": {
    "generator": "Substance Painter 2019.3.3",
    "version": "2.0"
  },
  "bufferViews": [
    {
      "buffer": 0,
      "byteLength": 116304,
      "target": 34963
    },
    {
      "buffer": 0,
      "byteLength": 121848,
      "byteOffset": 116304,
      "target": 34962
    },
    {
      "buffer": 0,
      "byteLength": 121848,
      "byteOffset": 238152,
      "target": 34962
    },
    {
      "buffer": 0,
      "byteLength": 81232,
      "byteOffset": 360000,
      "target": 34962
    }
  ],
  "buffers": [
    {
      "byteLength": 441232,
      "uri": "PlayerShip01_AA.bin"
    }
  ],
  "images": [
    {
      "uri": "PlayerShip01_AA_baseColor.png"
    },
    {
      "uri": "PlayerShip01_AA_occlusionRoughnessMetallic.png"
    },
    {
      "uri": "PlayerShip01_AA_normal.png"
    }
  ],
  "materials": [
    {
      "alphaMode": "OPAQUE",
      "name": "PlayerShip01_AA",
      "normalTexture": {
        "index": 2
      },
      "occlusionTexture": {
        "index": 1
      },
      "pbrMetallicRoughness": {
        "baseColorTexture": {
          "index": 0
        },
        "metallicRoughnessTexture": {
          "index": 1
        }
      }
    }
  ],
  "meshes": [
    {
      "name": "PlayerShip01_AA_Low2",
      "primitives": [
        {
          "attributes": {
            "NORMAL": 2,
            "POSITION": 1,
            "TEXCOORD_0": 3
          },
          "indices": 0,
          "material": 0,
          "mode": 4
        }
      ]
    }
  ],
  "nodes": [
    {
      "children": [
        1
      ],
      "name": "root",
      "scale": [
        7.18816947937012,
        7.18816947937012,
        7.18816947937012
      ],
      "translation": [
        0.0,
        1.48447418212891,
        -2.07910060882568
      ]
    },
    {
      "children": [
        2
      ],
      "name": "PlayerShip01_AA_Low2"
    },
    {
      "mesh": 0,
      "name": "PlayerShip01_AA_Low2"
    }
  ],
  "samplers": [
    {
      "magFilter": 9729,
      "minFilter": 9985,
      "wrapS": 10497,
      "wrapT": 10497
    }
  ],
  "scene": 0,
  "scenes": [
    {
      "name": "Scene",
      "nodes": [
        0
      ]
    }
  ],
  "textures": [
    {
      "sampler": 0,
      "source": 0
    },
    {
      "sampler": 0,
      "source": 1
    },
    {
      "sampler": 0,
      "source": 2
    }
  ]
}