{
  "accessors": [
    {
      "bufferView": 0,
      "componentType": 5125,
      "count": 14799,
      "type": "SCALAR"
    },
    {
      "bufferView": 1,
      "componentType": 5126,
      "count": 3896,
      "max": [
        0.924041152000427,
        0.181899040937424,
        0.999999821186066
      ],
      "min": [
        -0.924041152000427,
        -0.181899040937424,
        -0.999999821186066
      ],
      "type": "VEC3"
    },
    {
      "bufferView": 2,
      "componentType": 5126,
      "count": 3896,
      "type": "VEC3"
    },
    {
      "bufferView": 3,
      "componentType": 5126,
      "count": 3896,
      "type": "VEC2"
    }
  ],
  "asset": {
    "generator": "Substance Painter 2019.3.3",
    "version": "2.0"
  },
  "bufferViews": [
    {
      "buffer": 0,
      "byteLength": 59196,
      "target": 34963
    },
    {
      "buffer": 0,
      "byteLength": 46752,
      "byteOffset": 59196,
      "target": 34962
    },
    {
      "buffer": 0,
      "byteLength": 46752,
      "byteOffset": 105948,
      "target": 34962
    },
    {
      "buffer": 0,
      "byteLength": 31168,
      "byteOffset": 152700,
      "target": 34962
    }
  ],
  "buffers": [
    {
      "byteLength": 183868,
      "uri": "PlayerShip01_AA.bin"
    }
  ],
  "images": [
    {
      "uri": "PlayerShip01_AA_baseColor.png"
    },
    {
      "uri": "PlayerShip01_AA_occlusionRoughnessMetallic.png"
    },
    {
      "uri": "PlayerShip01_AA_normal.png"
    }
  ],
  "materials": [
    {
      "alphaMode": "OPAQUE",
      "name": "PlayerShip01_AA",
      "normalTexture": {
        "index": 2
      },
      "occlusionTexture": {
        "index": 1
      },
      "pbrMetallicRoughness": {
        "baseColorTexture": {
          "index": 0
        },
        "metallicRoughnessTexture": {
          "index": 1
        }
      }
    }
  ],
  "meshes": [
    {
      "name": "PlayerShip01",
      "primitives": [
        {
          "attributes": {
            "NORMAL": 2,
            "POSITION": 1,
            "TEXCOORD_0": 3
          },
          "indices": 0,
          "material": 0,
          "mode": 4
        }
      ]
    }
  ],
  "nodes": [
    {
      "children": [
        1
      ],
      "name": "root",
      "scale": [
        7.49431896209717,
        7.49431896209717,
        7.49431896209717
      ],
      "translation": [
        0.0,
        1.36320948600769,
        -2.48524951934814
      ]
    },
    {
      "children": [
        2
      ],
      "name": "PlayerShip01"
    },
    {
      "mesh": 0,
      "name": "PlayerShip01"
    }
  ],
  "samplers": [
    {
      "magFilter": 9729,
      "minFilter": 9985,
      "wrapS": 10497,
      "wrapT": 10497
    }
  ],
  "scene": 0,
  "scenes": [
    {
      "name": "Scene",
      "nodes": [
        0
      ]
    }
  ],
  "textures": [
    {
      "sampler": 0,
      "source": 0
    },
    {
      "sampler": 0,
      "source": 1
    },
    {
      "sampler": 0,
      "source": 2
    }
  ]
}